<svg width="100" height="105" viewBox="0 0 100 105" fill="none" xmlns="http://www.w3.org/2000/svg">
<path d="M11.4858 82.9815C7.20312 88.672 3.53955 93.421 1.55512 98.857C-0.386911 104.157 -1.1756 106.591 3.22578 101.079C7.33033 95.9567 11.172 90.9702 16.7691 86.2635C17.1592 86.3653 17.5917 86.4416 18.0242 86.5349C68.7969 96.6266 105.755 73.7972 99.2588 0C60.1807 13.5433 4.82011 8.03102 10.5444 77.3929C10.7649 79.9625 10.96 81.7264 11.4858 82.9815ZM23.5111 73.017C36.7831 44.4293 70.8746 34.6343 87.7847 15.0953C69.4668 50.8151 54.4733 52.5705 23.5111 73.017Z" fill="#006D36"/>
<path d="M91 10.5L33.5 38.5L14.5 74L40.5 75.5L82.5 46.5L91 10.5Z" fill="#006D36"/>
</svg>
